# xmcd
#
# Track frame offsets:
#  150
#  1004
#  16935
#  32792
#  53874
#  71219
#  88075
#  99442
#  118515
#  131789
#  148871
#  171754
#  182430
#  192295
#  206152
#  224668
#  234683
#  250505
#  265382
#
# Disc length: 3664 seconds
#
# Revision: 0
# Processed by: cddbd v1.5.1PL0 Copyright (c) Steve Scherf et al.
# Submitted via: AltoMP3_Maker 3.0
#
DISCID=160e4e13
DTITLE=Harpattack - 2 Became 1
DYEAR=1900
DGENRE=
TTITLE0=Prelude
TTITLE1=American Prayer
TTITLE2=She Caught The Katy
TTITLE3=Telling Stories
TTITLE4=Breaking Up Somebodys Home
TTITLE5=2 Became 1
TTITLE6=Back Of Steel
TTITLE7=Money Talks
TTITLE8=Talking About My Babe
TTITLE9=Rock Me Baby
TTITLE10=Try To Make Your Mind Up
TTITLE11=Talking
TTITLE12=T. Resume
TTITLE13=Rollin and Tumblin
TTITLE14=Voodoo Chile
TTITLE15=To Be With You
TTITLE16=Results
TTITLE17=I Got The Blues When It Rains
TTITLE18=Data
EXTD=
EXTT0=
EXTT1=
EXTT2=
EXTT3=
EXTT4=
EXTT5=
EXTT6=
EXTT7=
EXTT8=
EXTT9=
EXTT10=
EXTT11=
EXTT12=
EXTT13=
EXTT14=
EXTT15=
EXTT16=
EXTT17=
EXTT18=
PLAYORDER=
